<svg xmlns="http://www.w3.org/2000/svg" viewBox="0 0 100 100" fill="none">
  <path d="M50 20 C30 20, 20 30, 20 45 C20 60, 30 70, 40 75 L50 85 L60 75 C70 70, 80 60, 80 45 C80 30, 70 20, 50 20 Z" 
        fill="#8B5CF6" opacity="0.8"/>
  <path d="M50 20 C70 20, 80 30, 80 45 C80 60, 70 70, 60 75 L50 85 L40 75 C30 70, 20 60, 20 45 C20 30, 30 20, 50 20 Z" 
        fill="#3B82F6" opacity="0.6"/>
  <circle cx="35" cy="40" r="3" fill="white"/>
  <circle cx="65" cy="40" r="3" fill="white"/>
  <line x1="50" y1="20" x2="50" y2="85" stroke="#6B21A8" stroke-width="2"/>
</svg>
